<?xml version="1.0" standalone="no"?>
<!DOCTYPE svg PUBLIC "-//W3C//DTD SVG 20010904//EN"
 "http://www.w3.org/TR/2001/REC-SVG-20010904/DTD/svg10.dtd">
<svg version="1.0" xmlns="http://www.w3.org/2000/svg"
 width="425.000000pt" height="425.000000pt" viewBox="0 0 425.000000 425.000000"
 preserveAspectRatio="xMidYMid meet">
<metadata>
Created by potrace 1.14, written by Peter Selinger 2001-2017
</metadata>
<g transform="translate(0.000000,425.000000) scale(0.100000,-0.100000)"
fill="#000000" stroke="none">
<path d="M3516 4045 c-236 -107 -432 -198 -436 -202 -4 -4 -24 -48 -44 -98
-106 -253 -429 -832 -735 -1320 -194 -308 -737 -1145 -742 -1145 -7 0 -79 187
-129 335 -45 131 -100 350 -107 423 -3 34 -9 62 -14 62 -4 0 -144 -72 -311
-161 -167 -89 -396 -210 -510 -271 -115 -60 -208 -113 -208 -116 0 -24 85
-224 185 -437 241 -513 248 -529 346 -809 33 -93 65 -176 71 -185 87 -117 196
-148 344 -97 161 55 308 158 479 338 173 181 234 283 557 918 179 351 458 872
563 1050 164 278 430 723 650 1085 248 411 485 810 485 820 0 3 -3 5 -7 5 -5
0 -201 -88 -437 -195z"/>
</g>
</svg>
